<svg width="134" height="74" viewBox="0 0 134 74" fill="none" xmlns="http://www.w3.org/2000/svg">
<path d="M0.106247 71.4754C0.874802 64.9437 15.8586 43.8135 20.6605 41.3153C23.888 39.6366 36.7274 40.2971 46.5042 40.2735C46.5042 40.2597 46.4964 40.2479 46.4964 40.2342C46.5927 34.929 52.3519 35.9374 59.9214 36.871C65.3917 29.7634 72.6782 10.2352 78.8659 4.04747C86.1661 -3.25276 132.845 1.55118 132.845 1.55118C136.399 5.10499 97.4978 9.42733 90.9681 11.3477C84.4364 13.2681 78.0973 24.2185 74.6398 31.3261C71.1824 38.4337 71.7583 41.8912 75.9843 44.0042C80.2103 46.1172 85.0123 42.4671 85.9735 43.4283C86.9347 44.3895 83.6679 49.5747 75.601 52.073C67.5323 54.5693 59.2728 50.1526 55.43 48.2303C51.5873 46.3099 46.402 47.0764 36.0276 47.0764C25.6551 47.0764 20.179 54.6656 11.438 61.8676C2.70087 69.0734 -0.662308 78.0071 0.106247 71.4754Z" fill="#00336B"/>
<rect width="34.4263" height="19.9066" rx="9.95328" transform="matrix(-0.932095 -0.362213 -0.362213 0.932095 61.1522 49.5488)" fill="#007AFF"/>
<circle cx="1.99066" cy="1.99066" r="1.99066" transform="matrix(-0.932095 -0.362213 -0.362213 0.932095 51.2415 53.7336)" fill="white"/>
<circle cx="1.99066" cy="1.99066" r="1.99066" transform="matrix(-0.932095 -0.362213 -0.362213 0.932095 43.8196 50.8495)" fill="white"/>
<circle cx="1.99066" cy="1.99066" r="1.99066" transform="matrix(-0.932095 -0.362213 -0.362213 0.932095 36.3976 47.9653)" fill="white"/>
</svg>
