<svg width="134" height="74" viewBox="0 0 134 74" fill="none" xmlns="http://www.w3.org/2000/svg">
<path d="M132.968 71.4754C132.199 64.9437 117.216 43.8135 112.414 41.3153C109.186 39.6366 96.3468 40.2971 86.5699 40.2735C86.5699 40.2597 86.5777 40.2479 86.5777 40.2342C86.4814 34.929 80.7222 35.9374 73.1527 36.871C67.6824 29.7634 60.396 10.2352 54.2082 4.04747C46.908 -3.25276 0.228924 1.55118 0.228924 1.55118C-3.32488 5.10499 35.5763 9.42733 42.106 11.3477C48.6377 13.2681 54.9768 24.2185 58.4343 31.3261C61.8918 38.4337 61.3159 41.8912 57.0898 44.0042C52.8638 46.1172 48.0618 42.4671 47.1006 43.4283C46.1395 44.3895 49.4062 49.5747 57.4731 52.073C65.5419 54.5693 73.8014 50.1526 77.6441 48.2303C81.4868 46.3099 86.6721 47.0764 97.0465 47.0764C107.419 47.0764 112.895 54.6656 121.636 61.8676C130.373 69.0734 133.736 78.0071 132.968 71.4754Z" fill="#00336B"/>
<rect x="71.9219" y="49.5488" width="34.4262" height="19.9066" rx="9.95328" transform="rotate(-21.2362 71.9219 49.5488)" fill="#007AFF"/>
<circle cx="84.4092" cy="54.868" r="1.99066" transform="rotate(-21.2362 84.4092 54.868)" fill="white"/>
<circle cx="91.831" cy="51.984" r="1.99066" transform="rotate(-21.2362 91.831 51.984)" fill="white"/>
<circle cx="99.253" cy="49.0997" r="1.99066" transform="rotate(-21.2362 99.253 49.0997)" fill="white"/>
</svg>
