<svg width="645" height="63" viewBox="0 0 645 63" fill="none" xmlns="http://www.w3.org/2000/svg">
<path d="M255.783 14.22C255.783 16.47 253.983 18.18 250.851 18.18C247.737 18.18 245.847 16.47 245.685 13.896H247.701C247.791 15.534 248.835 16.596 250.815 16.596C252.453 16.596 253.677 15.822 253.677 14.49C253.677 13.41 252.975 12.87 251.481 12.546L249.609 12.186C247.791 11.826 246.135 10.908 246.135 8.712C246.135 6.534 248.043 4.896 250.725 4.896C253.407 4.896 255.441 6.534 255.603 9.108H253.587C253.479 7.56 252.363 6.48 250.743 6.48C249.069 6.48 248.151 7.47 248.151 8.586C248.151 9.81 249.213 10.242 250.419 10.494L252.327 10.872C254.541 11.322 255.783 12.294 255.783 14.22ZM261.333 18.198C258.723 18.198 256.887 16.146 256.887 13.23C256.887 10.35 258.759 8.28 261.333 8.28C263.691 8.28 265.401 9.846 265.743 12.33H263.835C263.637 10.8 262.683 9.882 261.351 9.882C259.785 9.882 258.759 11.214 258.759 13.23C258.759 15.264 259.785 16.578 261.351 16.578C262.701 16.578 263.637 15.678 263.853 14.13H265.743C265.419 16.65 263.727 18.198 261.333 18.198ZM269.031 13.122V18H267.213V8.46H268.905V10.476C269.571 9.162 271.011 8.334 272.577 8.334V10.224C270.525 10.116 269.031 11.016 269.031 13.122ZM277.617 18.18C274.917 18.18 272.937 16.056 272.937 13.23C272.937 10.404 274.917 8.28 277.617 8.28C280.317 8.28 282.297 10.404 282.297 13.23C282.297 16.056 280.317 18.18 277.617 18.18ZM277.617 16.578C279.183 16.578 280.425 15.318 280.425 13.23C280.425 11.142 279.183 9.9 277.617 9.9C276.051 9.9 274.827 11.142 274.827 13.23C274.827 15.318 276.051 16.578 277.617 16.578ZM285.626 18H283.79V5.076H285.626V18ZM289.625 18H287.789V5.076H289.625V18ZM300.572 16.236V17.838C300.014 18.09 299.528 18.18 298.952 18.18C297.188 18.18 295.964 17.226 295.964 15.12V10.008H293.858V8.46H295.964V5.634H297.782V8.46H300.662V10.008H297.782V14.706C297.782 16.02 298.412 16.488 299.384 16.488C299.816 16.488 300.194 16.416 300.572 16.236ZM305.77 18.18C303.07 18.18 301.09 16.056 301.09 13.23C301.09 10.404 303.07 8.28 305.77 8.28C308.47 8.28 310.45 10.404 310.45 13.23C310.45 16.056 308.47 18.18 305.77 18.18ZM305.77 16.578C307.336 16.578 308.578 15.318 308.578 13.23C308.578 11.142 307.336 9.9 305.77 9.9C304.204 9.9 302.98 11.142 302.98 13.23C302.98 15.318 304.204 16.578 305.77 16.578ZM317.181 18H315.345V5.076H317.181V18ZM323.268 18.18C320.514 18.18 318.66 16.182 318.66 13.176C318.66 10.35 320.586 8.28 323.214 8.28C326.058 8.28 327.948 10.584 327.624 13.68H320.514C320.658 15.624 321.63 16.758 323.232 16.758C324.582 16.758 325.518 16.02 325.824 14.778H327.624C327.156 16.902 325.518 18.18 323.268 18.18ZM323.178 9.648C321.72 9.648 320.73 10.692 320.532 12.474H325.698C325.608 10.71 324.654 9.648 323.178 9.648ZM334.975 18V16.524C334.381 17.586 333.319 18.18 331.915 18.18C329.935 18.18 328.639 17.046 328.639 15.3C328.639 13.428 330.133 12.456 332.977 12.456C333.535 12.456 333.985 12.474 334.759 12.564V11.862C334.759 10.494 334.021 9.72 332.761 9.72C331.429 9.72 330.619 10.512 330.565 11.844H328.909C328.999 9.702 330.529 8.28 332.761 8.28C335.119 8.28 336.487 9.612 336.487 11.88V18H334.975ZM330.367 15.246C330.367 16.236 331.105 16.884 332.275 16.884C333.805 16.884 334.759 15.93 334.759 14.472V13.698C334.057 13.608 333.553 13.59 333.085 13.59C331.267 13.59 330.367 14.13 330.367 15.246ZM340.376 13.122V18H338.558V8.46H340.25V10.476C340.916 9.162 342.356 8.334 343.922 8.334V10.224C341.87 10.116 340.376 11.016 340.376 13.122ZM346.818 12.618V18H345V8.46H346.692V10.044C347.34 8.982 348.42 8.28 349.734 8.28C351.696 8.28 352.992 9.54 352.992 11.826V18H351.174V12.438C351.174 10.8 350.454 9.882 349.104 9.882C347.862 9.882 346.818 10.926 346.818 12.618ZM360.266 18H358.448V8.46H360.14V10.044C360.788 8.946 361.814 8.28 363.128 8.28C364.532 8.28 365.594 9 366.026 10.26C366.692 9.036 367.79 8.28 369.248 8.28C371.21 8.28 372.47 9.558 372.47 11.826V18H370.652V12.402C370.652 10.818 369.95 9.882 368.618 9.882C367.376 9.882 366.368 10.926 366.368 12.528V18H364.55V12.402C364.55 10.818 363.848 9.882 362.516 9.882C361.256 9.882 360.266 10.926 360.266 12.528V18ZM378.537 18.18C375.837 18.18 373.857 16.056 373.857 13.23C373.857 10.404 375.837 8.28 378.537 8.28C381.237 8.28 383.217 10.404 383.217 13.23C383.217 16.056 381.237 18.18 378.537 18.18ZM378.537 16.578C380.103 16.578 381.345 15.318 381.345 13.23C381.345 11.142 380.103 9.9 378.537 9.9C376.971 9.9 375.747 11.142 375.747 13.23C375.747 15.318 376.971 16.578 378.537 16.578ZM386.529 13.122V18H384.711V8.46H386.403V10.476C387.069 9.162 388.509 8.334 390.075 8.334V10.224C388.023 10.116 386.529 11.016 386.529 13.122ZM395.042 18.18C392.288 18.18 390.434 16.182 390.434 13.176C390.434 10.35 392.36 8.28 394.988 8.28C397.832 8.28 399.722 10.584 399.398 13.68H392.288C392.432 15.624 393.404 16.758 395.006 16.758C396.356 16.758 397.292 16.02 397.598 14.778H399.398C398.93 16.902 397.292 18.18 395.042 18.18ZM394.952 9.648C393.494 9.648 392.504 10.692 392.306 12.474H397.472C397.382 10.71 396.428 9.648 394.952 9.648Z" fill="#1D2026"/>
<path d="M320.363 55.7812L319.348 54.4926C317.703 52.4048 316.881 51.361 317.256 50.5139C317.631 49.6667 318.916 49.6667 321.485 49.6667H323.515C326.084 49.6667 327.369 49.6667 327.744 50.5139C328.119 51.361 327.296 52.4048 325.652 54.4926L324.637 55.7811C323.646 57.0382 323.151 57.6667 322.5 57.6667C321.849 57.6667 321.353 57.0382 320.363 55.7812Z" stroke="#1D2026" stroke-width="2" stroke-linecap="round" stroke-linejoin="round"/>
<path d="M322.5 49.6666V36.3333" stroke="#1D2026" stroke-width="2" stroke-linecap="round" stroke-linejoin="round"/>
</svg>
